<?xml version="1.0" encoding="utf-8"?>
<!-- Generator: Adobe Illustrator 21.0.2, SVG Export Plug-In . SVG Version: 6.00 Build 0)  -->
<svg version="1.1" id="Capa_1" xmlns="http://www.w3.org/2000/svg" xmlns:xlink="http://www.w3.org/1999/xlink" x="0px" y="0px"
	 viewBox="0 0 58.4 58.4" style="enable-background:new 0 0 58.4 58.4;" xml:space="preserve">
<style type="text/css">
	.st0{display:none;}
</style>
<path class="st0" d="M57.3,20L38.7,1.4c-0.8-0.9-2-1.3-3.1-1.3c-1.2,0-2.2,0.5-3.1,1.3L8.9,24.6c-3.3,3.1-5.2,7.3-5.9,11.7L0.6,52.9
	c0,0.2,0,0.5,0,0.7c0,2.5,2.1,4.6,4.6,4.6c0.2,0,0.6,0,0.8-0.1l16.5-2.9c4.2-0.7,7.9-2.7,10.9-5.7l23.7-23.5c0.9-0.8,1.3-2,1.3-3.1
	C58.6,22.1,58.1,21,57.3,20z"/>
<g id="surface1">
	<path d="M20.3,7.7l2.8,2.8l3,3c0.7,0.7,1.5,1,2.5,1c0,0,0,0,0,0c0.9,0,1.8-0.4,2.5-1c1.4-1.4,1.4-3.6,0-4.9l-5.8-5.8
		c-0.7-0.7-1.5-1-2.5-1c-0.9,0-1.8,0.4-2.5,1C19,4.1,19,6.3,20.3,7.7C20.3,7.7,20.3,7.7,20.3,7.7z"/>
	<path d="M13.1,14.9l1.8,1.8l4,4c0,0,0,0,0,0l1.4,1.4c0,0,0,0,0,0c0.7,0.7,1.5,1,2.5,1c0.9,0,1.8-0.4,2.5-1c0.7-0.7,1-1.5,1-2.5
		c0-0.9-0.4-1.8-1-2.5l-1.4-1.4c0,0,0,0,0,0l-3.3-3.3L18,10c0,0,0,0,0,0c0,0,0,0,0,0c-0.7-0.7-1.5-1-2.5-1c-0.9,0-1.8,0.4-2.5,1
		C11.7,11.4,11.7,13.6,13.1,14.9C13.1,14.9,13.1,14.9,13.1,14.9z"/>
	<path d="M5.8,22.2l5.8,5.8c0,0,0,0,0,0c0.7,0.7,1.5,1,2.5,1c0.9,0,1.8-0.4,2.5-1c1.4-1.4,1.4-3.6,0-4.9l-3.7-3.7l-2.1-2.1
		c-0.7-0.7-1.5-1-2.5-1c-0.9,0-1.8,0.4-2.5,1c-0.7,0.7-1,1.5-1,2.5C4.8,20.7,5.2,21.5,5.8,22.2C5.8,22.2,5.8,22.2,5.8,22.2z"/>
	<path d="M6.5,37.5c0.5,0.5,1.2,0.9,1.9,1c0,0,0,0,0,0c0.2,0,0.3,0,0.5,0c0.9,0,1.8-0.4,2.5-1c1.4-1.4,1.4-3.6,0-4.9l-4.4-4.4
		c-0.7-0.7-1.5-1-2.5-1s-1.8,0.4-2.5,1c-1.4,1.4-1.4,3.6,0,4.9c0,0,0,0,0,0L6.5,37.5C6.5,37.5,6.5,37.5,6.5,37.5z"/>
	<path d="M56.4,28.2c-1.1-1.1-2.9-1.3-4.3-0.5c-0.7,0.4-1.6,0.3-2.1-0.4l-0.1-0.1c-0.5-0.7-0.5-1.6,0.1-2.2l2.7-2.7c0,0,0,0,0,0
		c0.6-0.7,1-1.5,1-2.4c0-0.9-0.4-1.8-1-2.5c-0.7-0.7-1.5-1-2.5-1c-0.9,0-1.8,0.4-2.5,1c-0.6,0.6-1.7,0.6-2.3,0
		c-0.3-0.3-0.5-0.7-0.5-1.2c0-0.4,0.2-0.8,0.5-1.2c1.4-1.4,1.4-3.6,0-4.9c-1.4-1.4-3.6-1.4-4.9,0c-0.6,0.6-1.7,0.6-2.3,0
		c-0.3-0.3-0.5-0.7-0.5-1.2c0-0.4,0.2-0.8,0.5-1.2c0.7-0.7,1-1.5,1-2.5s-0.4-1.8-1-2.5c-1.4-1.4-3.6-1.4-4.9,0l-1.7,1.7l1.8,1.8
		c2.6,2.6,2.6,7,0,9.6c-1.1,1.1-2.6,1.8-4.1,2c0.2,0.6,0.3,1.3,0.3,2c0,1.8-0.7,3.5-2,4.8c-1.3,1.3-3,2-4.8,2c-0.7,0-1.3-0.1-2-0.3
		c-0.2,1.5-0.8,3-1.9,4.1c-1,1-2.3,1.7-3.7,1.9c1.1,2.5,0.6,5.5-1.4,7.6c-1.3,1.3-3,2-4.8,2c0,0,0,0,0,0c-0.1,0-0.1,0-0.2,0
		l-2.7,2.7c-0.5,0.5-0.8,1.3-0.8,2.1c0,0.9,0.4,1.7,1.1,2.4l7.3,7.3c1.3,1.3,3.5,1.3,4.9,0l4.2-4.2l1.6-0.4
		c6.5,1.7,13.5-0.1,18.3-4.9l9.4-9.4c0,0,0,0,0,0l4.4-4.4C57.8,31.7,57.8,29.5,56.4,28.2z"/>
	<path d="M51.1,43.1L45,49.2c-2.1,2.1-4.6,3.8-7.3,4.9l2.3,2.3c1.3,1.3,3.5,1.3,4.9,0l7.3-7.3c1.3-1.3,1.6-3.2,0.7-4.2
		C52.2,44.2,51.6,43.6,51.1,43.1z"/>
</g>
</svg>
