<?xml version="1.0" encoding="utf-8"?>
<!-- Generator: Adobe Illustrator 21.0.2, SVG Export Plug-In . SVG Version: 6.00 Build 0)  -->
<svg version="1.1" id="Capa_1" xmlns="http://www.w3.org/2000/svg" xmlns:xlink="http://www.w3.org/1999/xlink" x="0px" y="0px"
	 viewBox="0 0 58.4 58.4" style="enable-background:new 0 0 58.4 58.4;" xml:space="preserve">
<path d="M57.3,20L38.7,1.4c-0.8-0.9-2-1.3-3.1-1.3c-1.2,0-2.2,0.5-3.1,1.3L8.9,24.6c-3.3,3.1-5.2,7.3-5.9,11.7L0.6,52.9
	c0,0.2,0,0.5,0,0.7c0,2.5,2.1,4.6,4.6,4.6c0.2,0,0.6,0,0.8-0.1l16.5-2.9c4.2-0.7,7.9-2.7,10.9-5.7l23.7-23.5c0.9-0.8,1.3-2,1.3-3.1
	C58.6,22.1,58.1,21,57.3,20z"/>
</svg>
