<svg height="512pt" viewBox="0 0 512 512" width="512pt" xmlns="http://www.w3.org/2000/svg"><path d="m268.480469 119.144531c-2.78125-4.171875-7.464844-6.679687-12.480469-6.679687s-9.699219 2.507812-12.480469 6.679687l-160.667969 241c-5.285156 7.929688-1.921874 18.714844 6.910157 22.25 21.015625 8.40625 38.828125 22.75 51.511719 41.488281 12.6875 18.738282 19.394531 40.605469 19.394531 63.234376v9.882812c0 8.285156 6.714843 15 15 15h160.667969c8.28125 0 15-6.714844 15-15v-9.882812c0-22.628907 6.703124-44.496094 19.390624-63.234376 12.6875-18.738281 30.5-33.082031 51.511719-41.488281 8.847657-3.539062 12.191407-14.332031 6.910157-22.25zm-12.480469 216.121094c9.445312 0 17.132812 7.6875 17.132812 17.132813 0 9.449218-7.6875 17.132812-17.132812 17.132812s-17.132812-7.683594-17.132812-17.132812c0-9.445313 7.6875-17.132813 17.132812-17.132813zm89.882812 71.800781c-15.101562 22.304688-23.511718 48.113282-24.457031 74.933594h-130.851562c-.945313-26.820312-9.355469-52.628906-24.457031-74.933594-12.625-18.644531-29.25-33.851562-48.707032-44.675781l123.589844-185.382813v130.71875c-18.65625 6.28125-32.132812 23.925782-32.132812 44.671876 0 25.992187 21.144531 47.132812 47.132812 47.132812s47.132812-21.140625 47.132812-47.132812c0-20.742188-13.476562-38.390626-32.132812-44.671876v-130.71875l123.589844 185.382813c-19.457032 10.824219-36.082032 26.03125-48.707032 44.675781zm0 0"/><path d="m479.4375 211.183594c-6.226562-94.867188-81.746094-171.113282-176.304688-178.464844v-17.71875c0-8.285156-6.714843-15-15-15h-64.265624c-8.285157 0-15 6.714844-15 15v17.714844c-94.5625 7.347656-170.085938 83.601562-176.304688 178.46875-18.878906 6.152344-32.5625 23.910156-32.5625 44.816406 0 25.988281 21.144531 47.132812 47.132812 47.132812 25.988282 0 47.132813-21.144531 47.132813-47.132812 0-20.570312-13.25-38.097656-31.664063-44.511719 5.960938-78.457031 68.152344-141.4375 146.265626-148.652343v16.429687c0 8.285156 6.714843 15 15 15h64.269531c8.28125 0 15-6.714844 15-15v-16.429687c78.101562 7.21875 140.296875 70.195312 146.261719 148.652343-18.410157 6.414063-31.664063 23.941407-31.664063 44.511719 0 25.988281 21.144531 47.132812 47.132813 47.132812 25.988281 0 47.132812-21.144531 47.132812-47.132812 0-20.90625-13.6875-38.664062-32.5625-44.816406zm-432.304688 61.949218c-9.445312 0-17.132812-7.6875-17.132812-17.132812s7.6875-17.132812 17.132812-17.132812c9.449219 0 17.132813 7.6875 17.132813 17.132812s-7.683594 17.132812-17.132813 17.132812zm226-208.867187h-34.265624v-34.265625h34.265624zm191.734376 208.867187c-9.449219 0-17.132813-7.6875-17.132813-17.132812s7.683594-17.132812 17.132813-17.132812c9.445312 0 17.132812 7.6875 17.132812 17.132812s-7.6875 17.132812-17.132812 17.132812zm0 0"/></svg>